<?xml version="1.0" encoding="utf-8"?>
<!-- Generator: Adobe Illustrator 23.0.3, SVG Export Plug-In . SVG Version: 6.00 Build 0)  -->
<svg version="1.1" id="Layer_1" xmlns="http://www.w3.org/2000/svg" xmlns:xlink="http://www.w3.org/1999/xlink" x="0px" y="0px"
	 viewBox="0 0 169.97 112.04" style="enable-background:new 0 0 169.97 112.04;" xml:space="preserve">
<style type="text/css">
	.st0{opacity:0.62;fill:url(#SVGID_1_);}
	.st1{opacity:0.62;fill:url(#SVGID_2_);}
	.st2{opacity:0.36;fill:#FFFFFF;}
	.st3{fill:#231F20;}
</style>
<linearGradient id="SVGID_1_" gradientUnits="userSpaceOnUse" x1="16.4074" y1="16.4074" x2="95.6293" y2="95.6293">
	<stop  offset="0" style="stop-color:#F8F290"/>
	<stop  offset="1" style="stop-color:#F7D846"/>
</linearGradient>
<circle class="st0" cx="56.02" cy="56.02" r="56.02"/>
<linearGradient id="SVGID_2_" gradientUnits="userSpaceOnUse" x1="74.3409" y1="16.4074" x2="153.5629" y2="95.6293">
	<stop  offset="0" style="stop-color:#BCE6FB"/>
	<stop  offset="0.9997" style="stop-color:#66CEF6"/>
</linearGradient>
<circle class="st1" cx="113.95" cy="56.02" r="56.02"/>
<path class="st2" d="M113.95,4.83c-8.88,0-17.22,2.26-24.5,6.24c13.71,10.21,22.58,26.54,22.58,44.95s-8.88,34.74-22.58,44.95
	c7.28,3.97,15.62,6.24,24.5,6.24c28.27,0,51.18-22.92,51.18-51.18S142.22,4.83,113.95,4.83z"/>
<path class="st2" d="M55.99,4.83c8.88,0,17.22,2.26,24.5,6.24C66.78,21.28,57.9,37.61,57.9,56.02s8.88,34.74,22.58,44.95
	c-7.28,3.97-15.62,6.24-24.5,6.24C27.72,107.2,4.8,84.29,4.8,56.02S27.72,4.83,55.99,4.83z"/>
<g>
	<g>
		<path class="st3" d="M21.48,43.58v-5.67h1.3c0.26,0,0.48,0.03,0.67,0.08s0.35,0.14,0.47,0.26c0.13,0.12,0.22,0.26,0.28,0.44
			s0.09,0.39,0.09,0.63c0,0.23-0.03,0.44-0.09,0.61c-0.06,0.17-0.15,0.3-0.27,0.4c-0.12,0.1-0.27,0.16-0.46,0.19
			c0.23,0.05,0.41,0.14,0.55,0.26c0.14,0.12,0.24,0.28,0.31,0.48c0.07,0.19,0.1,0.43,0.1,0.7c0,0.24-0.03,0.46-0.08,0.67
			c-0.06,0.2-0.14,0.37-0.26,0.51c-0.12,0.14-0.27,0.25-0.46,0.33s-0.4,0.12-0.65,0.12H21.48z M22.27,40.27h0.47
			c0.22,0,0.4-0.03,0.52-0.09c0.13-0.06,0.21-0.17,0.27-0.3c0.05-0.14,0.08-0.32,0.08-0.55c0-0.26-0.04-0.45-0.12-0.57
			c-0.08-0.12-0.2-0.19-0.37-0.22s-0.39-0.05-0.66-0.05h-0.19V40.27z M22.27,43.01h0.53c0.35,0,0.59-0.08,0.71-0.25
			c0.12-0.17,0.18-0.43,0.18-0.8c0-0.24-0.03-0.44-0.09-0.6s-0.16-0.28-0.3-0.36c-0.14-0.08-0.32-0.12-0.56-0.12h-0.47V43.01z"/>
		<path class="st3" d="M25.25,43.58v-4.05H26v0.57c0.15-0.25,0.3-0.41,0.45-0.5c0.15-0.08,0.3-0.13,0.45-0.13c0.02,0,0.04,0,0.05,0
			c0.02,0,0.04,0,0.07,0.01v0.83c-0.06-0.02-0.12-0.04-0.19-0.06c-0.07-0.02-0.15-0.02-0.22-0.02c-0.12,0-0.22,0.03-0.32,0.08
			c-0.1,0.05-0.19,0.16-0.28,0.31v2.95H25.25z"/>
		<path class="st3" d="M28.73,43.63c-0.3,0-0.53-0.06-0.71-0.18c-0.17-0.12-0.3-0.29-0.37-0.52c-0.07-0.22-0.11-0.49-0.11-0.79
			v-1.18c0-0.3,0.04-0.57,0.11-0.79c0.07-0.22,0.19-0.4,0.37-0.52c0.17-0.12,0.41-0.18,0.71-0.18c0.3,0,0.53,0.06,0.7,0.18
			s0.29,0.29,0.36,0.52c0.07,0.22,0.11,0.49,0.11,0.79v1.18c0,0.3-0.04,0.57-0.11,0.79c-0.07,0.22-0.19,0.4-0.36,0.52
			S29.02,43.63,28.73,43.63z M28.73,43.08c0.14,0,0.25-0.04,0.3-0.13c0.06-0.08,0.09-0.19,0.1-0.33s0.02-0.28,0.02-0.43v-1.27
			c0-0.15-0.01-0.3-0.02-0.43s-0.05-0.25-0.1-0.33c-0.06-0.09-0.16-0.13-0.3-0.13c-0.15,0-0.25,0.04-0.31,0.13
			c-0.06,0.09-0.1,0.2-0.11,0.33c-0.01,0.14-0.02,0.28-0.02,0.43v1.27c0,0.15,0.01,0.29,0.02,0.43c0.01,0.14,0.05,0.25,0.11,0.33
			C28.48,43.04,28.58,43.08,28.73,43.08z"/>
		<path class="st3" d="M31.2,43.58l-0.65-4.05h0.62l0.42,2.98l0.54-2.98h0.57l0.54,2.97l0.42-2.97h0.62l-0.67,4.05h-0.63l-0.55-2.86
			l-0.55,2.86H31.2z"/>
		<path class="st3" d="M35.92,43.63c-0.33,0-0.6-0.1-0.8-0.31c-0.2-0.21-0.31-0.48-0.34-0.82l0.62-0.19
			c0.04,0.26,0.1,0.45,0.19,0.58c0.09,0.13,0.22,0.19,0.39,0.19c0.14,0,0.24-0.04,0.31-0.12s0.1-0.18,0.1-0.31
			c0-0.12-0.03-0.22-0.08-0.32c-0.05-0.09-0.14-0.19-0.25-0.29l-0.69-0.59c-0.14-0.12-0.26-0.26-0.35-0.41s-0.14-0.34-0.14-0.58
			c0-0.21,0.04-0.4,0.13-0.54c0.09-0.15,0.21-0.26,0.36-0.34c0.16-0.08,0.34-0.12,0.55-0.12c0.32,0,0.57,0.1,0.74,0.31
			c0.17,0.21,0.27,0.46,0.29,0.75l-0.5,0.19c-0.02-0.14-0.05-0.26-0.08-0.37c-0.04-0.1-0.09-0.19-0.15-0.25
			c-0.07-0.06-0.15-0.09-0.26-0.09c-0.12,0-0.22,0.04-0.29,0.12c-0.07,0.08-0.11,0.18-0.11,0.29c0,0.07,0.02,0.14,0.05,0.21
			c0.03,0.07,0.08,0.13,0.16,0.2l0.71,0.66c0.1,0.09,0.19,0.18,0.28,0.29c0.09,0.1,0.16,0.22,0.21,0.35
			c0.06,0.13,0.08,0.28,0.08,0.45c0,0.23-0.05,0.42-0.14,0.57c-0.09,0.15-0.22,0.27-0.39,0.35S36.15,43.63,35.92,43.63z"/>
		<path class="st3" d="M38.86,43.63c-0.32,0-0.56-0.06-0.73-0.19c-0.17-0.12-0.29-0.31-0.36-0.55c-0.07-0.24-0.1-0.54-0.1-0.88
			v-0.92c0-0.36,0.04-0.66,0.1-0.9c0.07-0.24,0.19-0.42,0.37-0.54c0.18-0.12,0.42-0.18,0.72-0.18c0.34,0,0.59,0.07,0.75,0.21
			c0.16,0.14,0.27,0.34,0.32,0.61s0.08,0.58,0.08,0.95v0.33h-1.6v0.81c0,0.16,0.02,0.3,0.05,0.4c0.03,0.1,0.08,0.18,0.15,0.23
			c0.07,0.05,0.15,0.07,0.26,0.07c0.11,0,0.2-0.03,0.26-0.08c0.06-0.05,0.1-0.13,0.12-0.23s0.03-0.22,0.03-0.35v-0.25H40v0.15
			c0,0.41-0.09,0.73-0.26,0.96C39.57,43.52,39.28,43.63,38.86,43.63z M38.41,41.16h0.86V40.8c0-0.17-0.01-0.31-0.03-0.42
			s-0.06-0.2-0.12-0.26c-0.06-0.06-0.15-0.09-0.28-0.09c-0.12,0-0.21,0.03-0.28,0.08c-0.06,0.06-0.11,0.15-0.13,0.28
			s-0.04,0.32-0.04,0.55V41.16z"/>
		<path class="st3" d="M40.85,43.58v-4.05h0.75v0.57c0.15-0.25,0.3-0.41,0.45-0.5c0.15-0.08,0.3-0.13,0.45-0.13
			c0.02,0,0.04,0,0.05,0c0.02,0,0.04,0,0.07,0.01v0.83c-0.06-0.02-0.12-0.04-0.19-0.06c-0.07-0.02-0.15-0.02-0.22-0.02
			c-0.12,0-0.22,0.03-0.32,0.08c-0.1,0.05-0.19,0.16-0.28,0.31v2.95H40.85z"/>
	</g>
</g>
<g>
	<g>
		<path class="st3" d="M17.32,50.6c-0.19,0-0.35-0.05-0.47-0.15c-0.12-0.09-0.22-0.23-0.29-0.39c-0.07-0.17-0.12-0.36-0.15-0.57
			s-0.05-0.44-0.06-0.69c-0.01-0.24-0.01-0.49-0.01-0.73c0-0.25,0-0.49,0.01-0.73s0.03-0.47,0.06-0.69
			c0.03-0.21,0.08-0.41,0.15-0.57s0.17-0.3,0.29-0.4s0.28-0.15,0.47-0.15v0.36c-0.12,0-0.21,0.07-0.27,0.2
			c-0.06,0.13-0.11,0.3-0.13,0.51c-0.03,0.21-0.04,0.44-0.05,0.7c-0.01,0.25-0.01,0.51-0.01,0.77c0,0.26,0,0.52,0.01,0.77
			c0,0.26,0.02,0.49,0.05,0.7c0.03,0.21,0.07,0.38,0.13,0.5c0.06,0.13,0.15,0.19,0.27,0.2V50.6z"/>
		<path class="st3" d="M18.41,49.63l-0.66-4.05h0.47l0.44,2.91l0.54-2.9h0.4l0.55,2.91l0.42-2.92h0.46l-0.65,4.05h-0.41l-0.56-3
			l-0.57,3H18.41z"/>
		<path class="st3" d="M22.5,49.68c-0.22,0-0.4-0.04-0.55-0.12c-0.15-0.08-0.26-0.2-0.33-0.36s-0.11-0.34-0.11-0.56V48.5h0.53
			c0,0.01,0,0.03,0,0.04s0,0.03,0,0.05c0,0.12,0.02,0.23,0.04,0.33s0.07,0.17,0.14,0.23c0.06,0.06,0.16,0.08,0.28,0.08
			c0.13,0,0.23-0.03,0.29-0.09c0.07-0.06,0.11-0.15,0.14-0.26c0.02-0.11,0.03-0.24,0.03-0.39c0-0.21-0.04-0.39-0.12-0.52
			c-0.08-0.14-0.22-0.21-0.41-0.22c-0.01,0-0.02,0-0.04,0s-0.03,0-0.04,0V47.2c0.01,0,0.02,0,0.04,0s0.02,0,0.04,0
			c0.19-0.01,0.33-0.06,0.41-0.15c0.08-0.09,0.12-0.25,0.12-0.46c0-0.18-0.03-0.33-0.09-0.44c-0.06-0.11-0.18-0.17-0.37-0.17
			c-0.18,0-0.3,0.06-0.36,0.18c-0.06,0.12-0.09,0.28-0.1,0.47c0,0.01,0,0.03,0,0.04s0,0.03,0,0.04h-0.53v-0.13
			c0-0.22,0.04-0.4,0.11-0.56s0.18-0.27,0.33-0.35s0.33-0.12,0.55-0.12c0.22,0,0.41,0.04,0.56,0.12s0.26,0.2,0.33,0.36
			c0.07,0.16,0.11,0.34,0.11,0.56c0,0.24-0.05,0.44-0.16,0.58s-0.25,0.25-0.42,0.3c0.12,0.04,0.23,0.1,0.31,0.19
			c0.08,0.09,0.15,0.2,0.2,0.34c0.05,0.14,0.07,0.3,0.07,0.48c0,0.24-0.03,0.45-0.1,0.63c-0.07,0.18-0.17,0.32-0.32,0.42
			C22.93,49.63,22.74,49.68,22.5,49.68z"/>
		<path class="st3" d="M25.13,49.68c-0.29,0-0.51-0.06-0.67-0.18c-0.16-0.12-0.27-0.28-0.33-0.49c-0.06-0.2-0.09-0.43-0.09-0.68
			V46.9c0-0.27,0.03-0.51,0.09-0.71c0.06-0.2,0.17-0.36,0.33-0.47c0.16-0.11,0.38-0.17,0.67-0.17c0.25,0,0.45,0.05,0.6,0.14
			c0.15,0.09,0.25,0.23,0.32,0.4s0.1,0.38,0.1,0.62v0.32h-0.54v-0.28c0-0.15-0.01-0.28-0.02-0.4c-0.02-0.11-0.06-0.2-0.12-0.27
			c-0.07-0.06-0.18-0.1-0.33-0.1c-0.16,0-0.28,0.03-0.35,0.1s-0.12,0.17-0.14,0.29c-0.02,0.12-0.03,0.27-0.03,0.44v1.6
			c0,0.2,0.02,0.36,0.05,0.48s0.09,0.2,0.17,0.25c0.08,0.05,0.18,0.08,0.31,0.08c0.15,0,0.26-0.03,0.33-0.1
			c0.07-0.07,0.11-0.16,0.12-0.28c0.02-0.12,0.02-0.26,0.02-0.42v-0.3h0.54v0.3c0,0.25-0.03,0.46-0.09,0.65
			c-0.06,0.19-0.16,0.34-0.31,0.44C25.6,49.62,25.39,49.68,25.13,49.68z"/>
		<path class="st3" d="M26.76,50.29l-0.08-0.23c0.09-0.03,0.16-0.08,0.21-0.16c0.05-0.08,0.08-0.16,0.08-0.27h-0.29v-0.58h0.55v0.57
			c0,0.18-0.04,0.32-0.11,0.42S26.92,50.23,26.76,50.29z"/>
		<path class="st3" d="M29.59,49.63l-0.66-4.05h0.47l0.44,2.91l0.54-2.9h0.4l0.55,2.91l0.42-2.92h0.46l-0.65,4.05h-0.41l-0.56-3
			l-0.57,3H29.59z"/>
		<path class="st3" d="M32.81,49.63v-4.05h0.56v1.75h1.04v-1.75h0.56v4.05h-0.56v-1.9h-1.04v1.9H32.81z"/>
		<path class="st3" d="M35.5,49.63l0.86-4.05h0.54l0.87,4.05h-0.54l-0.19-1.02h-0.83l-0.19,1.02H35.5z M36.3,48.21h0.67l-0.34-1.83
			L36.3,48.21z"/>
		<path class="st3" d="M38.72,49.63V46h-0.68v-0.42h1.92V46h-0.67v3.63H38.72z"/>
		<path class="st3" d="M40.97,49.63l-0.66-4.05h0.47l0.44,2.91l0.54-2.9h0.4l0.55,2.91l0.42-2.92h0.46l-0.65,4.05h-0.41l-0.56-3
			l-0.57,3H40.97z"/>
		<path class="st3" d="M45.15,49.68c-0.25,0-0.46-0.05-0.61-0.16c-0.15-0.11-0.26-0.27-0.33-0.47s-0.1-0.46-0.1-0.75v-1.35
			c0-0.3,0.03-0.55,0.09-0.76c0.06-0.21,0.17-0.37,0.33-0.48c0.16-0.11,0.38-0.17,0.66-0.17c0.25,0,0.46,0.04,0.61,0.13
			s0.27,0.21,0.34,0.39c0.07,0.17,0.1,0.4,0.1,0.66v0.15h-0.53v-0.12c0-0.18-0.01-0.32-0.04-0.43s-0.07-0.19-0.14-0.25
			s-0.18-0.08-0.34-0.08c-0.17,0-0.29,0.04-0.36,0.12c-0.08,0.08-0.12,0.18-0.14,0.31c-0.02,0.13-0.03,0.28-0.03,0.45v1.5
			c0,0.19,0.01,0.35,0.04,0.48c0.03,0.13,0.08,0.23,0.16,0.29c0.08,0.06,0.19,0.1,0.34,0.1c0.15,0,0.26-0.04,0.34-0.1
			c0.08-0.07,0.14-0.17,0.17-0.31s0.04-0.31,0.04-0.51v-0.28h-0.52v-0.4h1.03v2h-0.35l-0.06-0.46c-0.05,0.15-0.14,0.27-0.25,0.37
			C45.51,49.63,45.35,49.68,45.15,49.68z"/>
		<path class="st3" d="M46.79,50.6v-0.36c0.12,0,0.21-0.07,0.27-0.2s0.11-0.3,0.14-0.51c0.03-0.21,0.04-0.44,0.05-0.7
			s0.01-0.51,0.01-0.77c0-0.26,0-0.52-0.01-0.77s-0.02-0.49-0.05-0.7c-0.03-0.21-0.07-0.38-0.14-0.5c-0.06-0.13-0.15-0.19-0.27-0.19
			v-0.35c0.19,0,0.35,0.05,0.47,0.14c0.12,0.09,0.22,0.23,0.29,0.39c0.07,0.17,0.12,0.36,0.15,0.57s0.05,0.44,0.06,0.68
			c0.01,0.24,0.01,0.48,0.01,0.73s0,0.49-0.01,0.73c-0.01,0.24-0.03,0.47-0.06,0.69s-0.08,0.41-0.15,0.58
			c-0.07,0.17-0.17,0.3-0.29,0.39C47.14,50.55,46.98,50.6,46.79,50.6z"/>
	</g>
</g>
<g>
	<g>
		<g>
			<path class="st3" d="M10.47,61.34v-5.67h0.79v2.45h1.46v-2.45h0.79v5.67h-0.79v-2.65h-1.46v2.65H10.47z"/>
			<path class="st3" d="M15.16,61.34v-5.08h-0.96v-0.59h2.68v0.59h-0.93v5.08H15.16z"/>
			<path class="st3" d="M17.56,61.34l0.11-5.67h0.78l1,4.6l1.01-4.6h0.77l0.1,5.67h-0.64l-0.06-4.12l-0.96,4.12h-0.45l-0.95-4.12
				l-0.06,4.12H17.56z"/>
			<path class="st3" d="M22.33,61.34v-5.67h0.79v5.1h1.45v0.57H22.33z"/>
		</g>
	</g>
	<g>
		<g>
			<path class="st3" d="M28.94,61.4c-0.4,0-0.71-0.08-0.93-0.25c-0.22-0.17-0.38-0.39-0.46-0.68s-0.13-0.6-0.13-0.95v-2
				c0-0.38,0.04-0.72,0.13-1c0.09-0.28,0.24-0.5,0.46-0.66c0.22-0.16,0.53-0.23,0.93-0.23c0.35,0,0.64,0.07,0.84,0.2
				c0.21,0.13,0.36,0.32,0.45,0.56c0.09,0.24,0.14,0.53,0.14,0.88v0.45h-0.75v-0.4c0-0.21-0.01-0.4-0.03-0.56
				c-0.02-0.16-0.08-0.29-0.17-0.37c-0.09-0.09-0.25-0.13-0.47-0.13c-0.22,0-0.39,0.05-0.49,0.14s-0.17,0.23-0.2,0.41
				c-0.03,0.18-0.05,0.38-0.05,0.61v2.25c0,0.28,0.02,0.51,0.07,0.68c0.05,0.17,0.12,0.28,0.23,0.35s0.25,0.1,0.43,0.1
				c0.21,0,0.37-0.05,0.46-0.14s0.15-0.23,0.17-0.4s0.04-0.36,0.04-0.59v-0.42h0.75v0.42c0,0.35-0.04,0.65-0.13,0.91
				s-0.23,0.47-0.43,0.62C29.6,61.33,29.31,61.4,28.94,61.4z"/>
			<path class="st3" d="M32.6,61.4c-0.33,0-0.6-0.07-0.82-0.21c-0.22-0.14-0.38-0.33-0.49-0.58c-0.11-0.25-0.18-0.53-0.2-0.86
				l0.7-0.19c0.01,0.2,0.05,0.39,0.09,0.58c0.05,0.19,0.13,0.34,0.24,0.46c0.11,0.12,0.27,0.18,0.47,0.18
				c0.21,0,0.36-0.06,0.47-0.17s0.16-0.28,0.16-0.49c0-0.26-0.06-0.46-0.17-0.62c-0.12-0.16-0.26-0.31-0.44-0.47l-0.95-0.84
				c-0.19-0.16-0.32-0.34-0.41-0.54c-0.09-0.19-0.13-0.43-0.13-0.72c0-0.42,0.12-0.74,0.36-0.97c0.24-0.23,0.56-0.34,0.97-0.34
				c0.22,0,0.42,0.03,0.59,0.09c0.17,0.06,0.31,0.15,0.43,0.27c0.11,0.12,0.21,0.27,0.27,0.46c0.07,0.18,0.11,0.4,0.14,0.65
				l-0.67,0.18c-0.01-0.19-0.04-0.36-0.08-0.51s-0.12-0.28-0.22-0.38s-0.26-0.14-0.45-0.14c-0.2,0-0.35,0.05-0.46,0.16
				c-0.11,0.1-0.16,0.26-0.16,0.47c0,0.17,0.03,0.31,0.09,0.43c0.06,0.11,0.15,0.23,0.28,0.34l0.96,0.84
				c0.21,0.19,0.4,0.41,0.57,0.67c0.16,0.26,0.25,0.57,0.25,0.92c0,0.28-0.06,0.52-0.18,0.72s-0.28,0.36-0.48,0.47
				C33.1,61.35,32.87,61.4,32.6,61.4z"/>
			<path class="st3" d="M36.05,61.4c-0.33,0-0.6-0.07-0.82-0.21c-0.22-0.14-0.38-0.33-0.49-0.58c-0.11-0.25-0.18-0.53-0.2-0.86
				l0.7-0.19c0.01,0.2,0.05,0.39,0.09,0.58c0.05,0.19,0.13,0.34,0.24,0.46c0.11,0.12,0.27,0.18,0.47,0.18
				c0.21,0,0.36-0.06,0.47-0.17s0.16-0.28,0.16-0.49c0-0.26-0.06-0.46-0.17-0.62c-0.12-0.16-0.26-0.31-0.44-0.47l-0.95-0.84
				c-0.19-0.16-0.32-0.34-0.41-0.54c-0.09-0.19-0.13-0.43-0.13-0.72c0-0.42,0.12-0.74,0.36-0.97c0.24-0.23,0.56-0.34,0.97-0.34
				c0.22,0,0.42,0.03,0.59,0.09c0.17,0.06,0.31,0.15,0.43,0.27c0.11,0.12,0.21,0.27,0.27,0.46c0.07,0.18,0.11,0.4,0.14,0.65
				l-0.67,0.18c-0.01-0.19-0.04-0.36-0.08-0.51s-0.12-0.28-0.22-0.38s-0.26-0.14-0.45-0.14c-0.2,0-0.35,0.05-0.46,0.16
				c-0.11,0.1-0.16,0.26-0.16,0.47c0,0.17,0.03,0.31,0.09,0.43c0.06,0.11,0.15,0.23,0.28,0.34l0.96,0.84
				c0.21,0.19,0.4,0.41,0.57,0.67c0.16,0.26,0.25,0.57,0.25,0.92c0,0.28-0.06,0.52-0.18,0.72s-0.28,0.36-0.48,0.47
				C36.55,61.35,36.32,61.4,36.05,61.4z"/>
		</g>
	</g>
	<g>
		<g>
			<path class="st3" d="M41.1,61.34l1.2-5.67h0.76l1.21,5.67h-0.75l-0.26-1.43h-1.16l-0.27,1.43H41.1z M42.22,59.34h0.95l-0.48-2.55
				L42.22,59.34z"/>
			<path class="st3" d="M45,61.34v-5.67h1.14c0.38,0,0.69,0.05,0.94,0.15c0.25,0.1,0.43,0.26,0.55,0.48
				c0.12,0.22,0.18,0.51,0.18,0.87c0,0.22-0.02,0.42-0.07,0.6c-0.05,0.18-0.12,0.33-0.22,0.46c-0.1,0.12-0.24,0.21-0.41,0.27
				l0.81,2.84h-0.76l-0.74-2.66h-0.62v2.66H45z M45.79,58.11h0.3c0.22,0,0.41-0.03,0.55-0.08s0.24-0.15,0.31-0.29
				c0.06-0.14,0.1-0.32,0.1-0.57c0-0.33-0.06-0.57-0.18-0.72c-0.12-0.15-0.36-0.22-0.72-0.22h-0.35V58.11z"/>
			<path class="st3" d="M48.81,61.34v-5.67h0.78v5.67H48.81z"/>
			<path class="st3" d="M50.34,61.34l1.2-5.67h0.76l1.21,5.67h-0.75l-0.26-1.43h-1.16l-0.27,1.43H50.34z M51.46,59.34h0.95
				l-0.48-2.55L51.46,59.34z"/>
		</g>
	</g>
</g>
<g>
	<g>
		<path class="st3" d="M13.18,72.03l-0.92-5.67h0.66l0.61,4.07l0.76-4.05h0.56l0.77,4.07l0.6-4.09h0.64l-0.91,5.67h-0.57l-0.79-4.2
			l-0.8,4.2H13.18z"/>
		<path class="st3" d="M17.67,67.38V66.6h0.75v0.78H17.67z M17.67,72.03v-4.05h0.75v4.05H17.67z"/>
		<path class="st3" d="M19.36,72.03v-4.05h0.75v0.4c0.14-0.13,0.28-0.23,0.45-0.32c0.16-0.09,0.34-0.13,0.54-0.13
			c0.16,0,0.29,0.04,0.37,0.13s0.15,0.19,0.18,0.31c0.04,0.13,0.05,0.25,0.05,0.39v3.28h-0.75v-3.06c0-0.14-0.02-0.26-0.06-0.34
			c-0.04-0.08-0.13-0.12-0.26-0.12c-0.08,0-0.17,0.02-0.26,0.07c-0.09,0.05-0.18,0.11-0.26,0.18v3.26H19.36z"/>
		<path class="st3" d="M23.51,72.09c-0.34,0-0.59-0.12-0.76-0.37c-0.17-0.25-0.25-0.67-0.25-1.27v-0.78c0-0.31,0.03-0.59,0.08-0.86
			s0.15-0.47,0.29-0.63s0.35-0.24,0.63-0.24c0.14,0,0.26,0.03,0.37,0.09c0.11,0.06,0.21,0.14,0.3,0.22v-1.88h0.75v5.67h-0.75v-0.26
			c-0.09,0.09-0.19,0.17-0.29,0.23C23.77,72.06,23.65,72.09,23.51,72.09z M23.7,71.5c0.07,0,0.14-0.01,0.22-0.04
			c0.08-0.03,0.16-0.06,0.24-0.12v-2.65c-0.07-0.05-0.14-0.09-0.22-0.12c-0.08-0.04-0.17-0.05-0.26-0.05
			c-0.17,0-0.29,0.08-0.35,0.25c-0.06,0.17-0.09,0.37-0.09,0.6v1.14c0,0.19,0.01,0.36,0.03,0.51c0.02,0.15,0.06,0.27,0.13,0.36
			C23.47,71.45,23.57,71.5,23.7,71.5z"/>
		<path class="st3" d="M26.92,72.09c-0.3,0-0.53-0.06-0.71-0.18c-0.17-0.12-0.3-0.29-0.37-0.52s-0.11-0.49-0.11-0.79v-1.18
			c0-0.3,0.04-0.57,0.11-0.79c0.07-0.22,0.19-0.4,0.37-0.52c0.17-0.12,0.41-0.18,0.71-0.18c0.3,0,0.53,0.06,0.7,0.18
			c0.17,0.12,0.29,0.29,0.36,0.52c0.07,0.22,0.11,0.49,0.11,0.79v1.18c0,0.3-0.04,0.57-0.11,0.79s-0.19,0.4-0.36,0.52
			C27.46,72.03,27.22,72.09,26.92,72.09z M26.92,71.53c0.14,0,0.25-0.04,0.3-0.13c0.06-0.08,0.09-0.19,0.1-0.33s0.02-0.28,0.02-0.43
			v-1.27c0-0.15-0.01-0.3-0.02-0.43s-0.05-0.25-0.1-0.33c-0.06-0.09-0.16-0.13-0.3-0.13c-0.15,0-0.25,0.04-0.31,0.13
			c-0.06,0.09-0.1,0.2-0.11,0.33c-0.01,0.14-0.02,0.28-0.02,0.43v1.27c0,0.15,0.01,0.29,0.02,0.43c0.01,0.14,0.05,0.25,0.11,0.33
			C26.68,71.49,26.78,71.53,26.92,71.53z"/>
		<path class="st3" d="M29.39,72.03l-0.65-4.05h0.62l0.42,2.98l0.54-2.98h0.57l0.54,2.97l0.42-2.97h0.62l-0.67,4.05h-0.63
			l-0.55-2.86l-0.55,2.86H29.39z"/>
		<path class="st3" d="M36.44,72.09c-0.38,0-0.69-0.07-0.92-0.22c-0.23-0.15-0.39-0.36-0.49-0.64c-0.1-0.28-0.15-0.6-0.15-0.98V68.1
			c0-0.37,0.05-0.69,0.15-0.96c0.1-0.27,0.26-0.47,0.49-0.62c0.23-0.14,0.53-0.21,0.91-0.21c0.38,0,0.69,0.07,0.91,0.22
			c0.22,0.14,0.39,0.35,0.49,0.62c0.1,0.27,0.15,0.59,0.15,0.96v2.16c0,0.37-0.05,0.69-0.15,0.97c-0.1,0.28-0.26,0.49-0.49,0.64
			C37.12,72.02,36.82,72.09,36.44,72.09z M36.44,71.47c0.21,0,0.37-0.04,0.48-0.13c0.11-0.09,0.18-0.21,0.22-0.36
			c0.04-0.16,0.06-0.34,0.06-0.55v-2.48c0-0.21-0.02-0.39-0.06-0.54c-0.04-0.15-0.11-0.27-0.22-0.35c-0.11-0.08-0.27-0.12-0.48-0.12
			s-0.37,0.04-0.48,0.12c-0.11,0.08-0.18,0.2-0.22,0.35c-0.04,0.15-0.06,0.33-0.06,0.54v2.48c0,0.21,0.02,0.39,0.06,0.55
			c0.04,0.16,0.11,0.28,0.22,0.36C36.07,71.43,36.23,71.47,36.44,71.47z"/>
		<path class="st3" d="M40.29,72.09c-0.15,0-0.27-0.04-0.39-0.11c-0.11-0.07-0.21-0.15-0.3-0.24v0.29h-0.75v-5.67h0.75v1.95
			c0.09-0.1,0.19-0.19,0.32-0.27c0.12-0.07,0.27-0.11,0.44-0.11c0.21,0,0.38,0.06,0.5,0.16c0.12,0.11,0.22,0.25,0.28,0.41
			c0.06,0.17,0.1,0.33,0.12,0.5s0.03,0.32,0.03,0.44v0.98c0,0.28-0.03,0.55-0.08,0.81c-0.06,0.25-0.16,0.46-0.3,0.62
			C40.76,72.01,40.55,72.09,40.29,72.09z M40.13,71.5c0.13,0,0.22-0.05,0.28-0.14c0.06-0.1,0.09-0.23,0.1-0.39
			c0.01-0.16,0.02-0.34,0.02-0.54v-0.98c0-0.17-0.01-0.32-0.03-0.47c-0.02-0.14-0.06-0.26-0.12-0.34c-0.06-0.08-0.16-0.13-0.29-0.13
			c-0.1,0-0.19,0.02-0.28,0.06c-0.09,0.04-0.16,0.09-0.23,0.14v2.6c0.06,0.05,0.14,0.09,0.23,0.13S40.02,71.5,40.13,71.5z"/>
		<path class="st3" d="M41.98,73.05c-0.06,0-0.13,0-0.2-0.01c-0.07-0.01-0.13-0.02-0.19-0.04v-0.54c0.02,0,0.06,0.01,0.1,0.01
			c0.04,0,0.07,0.01,0.1,0.01c0.11,0,0.19-0.02,0.25-0.06s0.1-0.1,0.13-0.18c0.03-0.07,0.04-0.16,0.04-0.25v-4.01h0.75v4.09
			c0,0.32-0.09,0.56-0.26,0.73C42.52,72.97,42.28,73.05,41.98,73.05z M42.21,67.38V66.6h0.76v0.78H42.21z"/>
		<path class="st3" d="M44.98,72.09c-0.32,0-0.56-0.06-0.73-0.19c-0.17-0.12-0.29-0.31-0.36-0.55c-0.07-0.24-0.1-0.54-0.1-0.89
			v-0.92c0-0.36,0.04-0.66,0.1-0.9c0.07-0.24,0.19-0.42,0.37-0.54c0.18-0.12,0.42-0.18,0.72-0.18c0.34,0,0.59,0.07,0.75,0.21
			s0.27,0.34,0.32,0.61s0.08,0.58,0.08,0.95v0.33h-1.6v0.81c0,0.16,0.02,0.3,0.05,0.4c0.03,0.1,0.08,0.18,0.15,0.23
			c0.07,0.05,0.15,0.07,0.26,0.07c0.11,0,0.2-0.03,0.26-0.08c0.06-0.05,0.1-0.13,0.12-0.23c0.02-0.1,0.03-0.22,0.03-0.35v-0.25h0.73
			v0.15c0,0.41-0.09,0.73-0.26,0.96C45.69,71.97,45.39,72.09,44.98,72.09z M44.53,69.61h0.86v-0.36c0-0.17-0.01-0.31-0.03-0.42
			c-0.02-0.11-0.06-0.2-0.12-0.26c-0.06-0.06-0.15-0.09-0.28-0.09c-0.12,0-0.21,0.03-0.28,0.08c-0.06,0.06-0.11,0.15-0.13,0.28
			c-0.02,0.13-0.04,0.32-0.04,0.55V69.61z"/>
		<path class="st3" d="M48.05,72.09c-0.33,0-0.58-0.07-0.75-0.2s-0.28-0.32-0.34-0.56c-0.06-0.24-0.09-0.52-0.09-0.85v-0.93
			c0-0.34,0.03-0.63,0.09-0.87c0.06-0.24,0.18-0.42,0.35-0.55c0.17-0.13,0.42-0.19,0.75-0.19c0.29,0,0.52,0.05,0.68,0.14
			s0.27,0.24,0.33,0.43c0.06,0.19,0.09,0.42,0.09,0.7v0.24h-0.68v-0.25c0-0.18-0.01-0.32-0.04-0.42s-0.07-0.18-0.13-0.22
			c-0.06-0.05-0.15-0.07-0.26-0.07c-0.12,0-0.21,0.03-0.28,0.08c-0.07,0.06-0.11,0.15-0.13,0.28c-0.02,0.13-0.03,0.31-0.03,0.54
			v1.27c0,0.35,0.03,0.58,0.1,0.69s0.18,0.17,0.35,0.17c0.13,0,0.22-0.03,0.28-0.09c0.06-0.06,0.1-0.14,0.11-0.25
			c0.02-0.11,0.02-0.23,0.02-0.36V70.5h0.68v0.28c0,0.27-0.03,0.5-0.09,0.7c-0.06,0.2-0.18,0.35-0.34,0.45
			C48.56,72.03,48.34,72.09,48.05,72.09z"/>
		<path class="st3" d="M51.04,72.09c-0.21,0-0.38-0.04-0.51-0.12c-0.13-0.08-0.22-0.19-0.28-0.34c-0.06-0.14-0.09-0.31-0.09-0.51
			v-2.64h-0.43v-0.5h0.43V66.8h0.75v1.18h0.65v0.5h-0.65v2.59c0,0.16,0.03,0.27,0.08,0.34c0.05,0.07,0.15,0.1,0.29,0.1
			c0.04,0,0.08,0,0.13-0.01c0.05,0,0.1-0.01,0.14-0.01v0.55c-0.09,0.01-0.18,0.02-0.26,0.03C51.22,72.08,51.13,72.09,51.04,72.09z"
			/>
	</g>
</g>
<g>
	<g>
		<path class="st3" d="M123.85,48.44v-4.62h0.86v0.46c0.15-0.14,0.33-0.27,0.51-0.37c0.19-0.1,0.39-0.15,0.62-0.15
			c0.19,0,0.33,0.05,0.43,0.14c0.1,0.1,0.17,0.22,0.21,0.36c0.04,0.14,0.06,0.29,0.06,0.44v3.74h-0.86v-3.5
			c0-0.17-0.02-0.29-0.07-0.38s-0.15-0.14-0.3-0.14c-0.1,0-0.2,0.03-0.3,0.08c-0.1,0.06-0.2,0.12-0.3,0.2v3.73H123.85z"/>
		<path class="st3" d="M128.79,48.51c-0.34,0-0.61-0.07-0.81-0.21s-0.34-0.34-0.42-0.59c-0.08-0.26-0.12-0.56-0.12-0.9v-1.34
			c0-0.35,0.04-0.65,0.12-0.9c0.08-0.26,0.22-0.45,0.42-0.59s0.47-0.21,0.81-0.21s0.61,0.07,0.8,0.21c0.19,0.14,0.33,0.34,0.42,0.59
			c0.08,0.26,0.12,0.56,0.12,0.9v1.34c0,0.35-0.04,0.65-0.12,0.9c-0.08,0.26-0.22,0.45-0.42,0.59
			C129.4,48.44,129.13,48.51,128.79,48.51z M128.79,47.88c0.17,0,0.28-0.05,0.35-0.14c0.07-0.1,0.11-0.22,0.12-0.38
			s0.02-0.32,0.02-0.49v-1.45c0-0.18-0.01-0.34-0.02-0.5s-0.05-0.28-0.12-0.38c-0.07-0.1-0.18-0.15-0.35-0.15
			c-0.17,0-0.28,0.05-0.35,0.15c-0.07,0.1-0.11,0.23-0.12,0.38s-0.02,0.32-0.02,0.5v1.45c0,0.17,0.01,0.33,0.02,0.49
			s0.05,0.28,0.12,0.38C128.51,47.83,128.62,47.88,128.79,47.88z"/>
		<path class="st3" d="M132.15,48.51c-0.39,0-0.68-0.14-0.87-0.43c-0.19-0.29-0.29-0.77-0.29-1.45v-0.9c0-0.35,0.03-0.68,0.09-0.98
			c0.06-0.3,0.17-0.54,0.33-0.72c0.16-0.18,0.4-0.27,0.72-0.27c0.15,0,0.3,0.03,0.42,0.1c0.13,0.07,0.24,0.15,0.34,0.26v-2.15h0.86
			v6.48h-0.86v-0.3c-0.1,0.11-0.21,0.19-0.33,0.26C132.44,48.47,132.3,48.51,132.15,48.51z M132.37,47.84
			c0.08,0,0.17-0.01,0.26-0.04c0.09-0.03,0.18-0.07,0.27-0.13v-3.03c-0.07-0.05-0.16-0.1-0.25-0.14s-0.19-0.06-0.3-0.06
			c-0.2,0-0.33,0.09-0.4,0.28c-0.07,0.19-0.1,0.42-0.1,0.68v1.3c0,0.21,0.01,0.41,0.04,0.58s0.07,0.31,0.15,0.41
			S132.22,47.84,132.37,47.84z"/>
		<path class="st3" d="M136.05,48.51c-0.36,0-0.64-0.07-0.84-0.21s-0.33-0.35-0.41-0.62c-0.08-0.27-0.12-0.61-0.12-1.01V45.6
			c0-0.41,0.04-0.75,0.12-1.02c0.08-0.27,0.22-0.48,0.42-0.62c0.2-0.14,0.48-0.21,0.83-0.21c0.39,0,0.68,0.08,0.86,0.24
			c0.18,0.16,0.31,0.39,0.36,0.69s0.09,0.66,0.09,1.08v0.38h-1.82v0.93c0,0.19,0.02,0.34,0.05,0.46c0.03,0.12,0.09,0.2,0.17,0.26
			c0.08,0.06,0.18,0.08,0.3,0.08c0.13,0,0.23-0.03,0.29-0.09c0.07-0.06,0.11-0.15,0.14-0.26s0.04-0.25,0.04-0.4v-0.28h0.83v0.18
			c0,0.46-0.1,0.83-0.3,1.1C136.86,48.37,136.53,48.51,136.05,48.51z M135.54,45.68h0.98v-0.42c0-0.19-0.01-0.35-0.03-0.48
			c-0.02-0.13-0.07-0.23-0.13-0.3c-0.07-0.07-0.17-0.1-0.32-0.1c-0.14,0-0.24,0.03-0.32,0.1c-0.07,0.06-0.12,0.17-0.15,0.32
			c-0.03,0.15-0.04,0.36-0.04,0.63V45.68z"/>
		<path class="st3" d="M138.26,48.44v-0.95h0.86v0.95H138.26z"/>
		<path class="st3" d="M139.82,49.61c-0.07,0-0.15,0-0.23-0.01c-0.08-0.01-0.15-0.02-0.21-0.04v-0.62c0.03,0.01,0.06,0.01,0.11,0.02
			c0.05,0,0.09,0.01,0.11,0.01c0.12,0,0.22-0.02,0.29-0.07c0.07-0.05,0.12-0.12,0.15-0.2c0.03-0.09,0.04-0.18,0.04-0.29v-4.58h0.86
			v4.67c0,0.36-0.1,0.64-0.3,0.83C140.44,49.52,140.17,49.61,139.82,49.61z M140.09,43.13v-0.9h0.86v0.9H140.09z"/>
		<path class="st3" d="M143.04,48.51c-0.38,0-0.68-0.12-0.91-0.36c-0.23-0.24-0.36-0.55-0.39-0.94l0.71-0.22
			c0.04,0.29,0.11,0.51,0.22,0.66c0.1,0.15,0.25,0.22,0.45,0.22c0.15,0,0.27-0.04,0.35-0.13c0.08-0.09,0.12-0.21,0.12-0.36
			c0-0.13-0.03-0.25-0.09-0.36c-0.06-0.11-0.15-0.22-0.29-0.33l-0.79-0.68c-0.16-0.14-0.29-0.29-0.4-0.46
			c-0.11-0.17-0.16-0.39-0.16-0.66c0-0.25,0.05-0.45,0.15-0.62s0.24-0.3,0.42-0.38c0.18-0.09,0.39-0.13,0.63-0.13
			c0.37,0,0.65,0.12,0.84,0.36c0.19,0.24,0.31,0.52,0.33,0.86l-0.58,0.22c-0.02-0.16-0.05-0.3-0.1-0.42
			c-0.04-0.12-0.1-0.21-0.18-0.28c-0.07-0.07-0.17-0.1-0.3-0.1c-0.14,0-0.25,0.05-0.33,0.14c-0.08,0.09-0.12,0.2-0.12,0.33
			c0,0.08,0.02,0.16,0.05,0.24c0.03,0.08,0.09,0.15,0.18,0.23l0.82,0.75c0.11,0.1,0.22,0.21,0.32,0.33s0.18,0.25,0.24,0.4
			c0.06,0.15,0.1,0.32,0.1,0.52c0,0.26-0.05,0.48-0.16,0.66c-0.11,0.18-0.26,0.31-0.45,0.4C143.52,48.46,143.29,48.51,143.04,48.51z
			"/>
		<path class="st3" d="M126.12,56.31c-0.21,0-0.39-0.06-0.53-0.17c-0.14-0.11-0.25-0.25-0.32-0.44c-0.08-0.19-0.14-0.4-0.17-0.64
			s-0.06-0.5-0.06-0.77c-0.01-0.27-0.01-0.55-0.01-0.82c0-0.28,0-0.55,0.01-0.83c0.01-0.27,0.03-0.53,0.06-0.77s0.09-0.46,0.17-0.65
			c0.08-0.19,0.19-0.34,0.32-0.45c0.14-0.11,0.31-0.16,0.53-0.16v0.41c-0.13,0-0.23,0.08-0.3,0.22c-0.07,0.15-0.12,0.34-0.15,0.57
			c-0.03,0.24-0.05,0.5-0.05,0.79c-0.01,0.29-0.01,0.58-0.01,0.87c0,0.29,0,0.58,0.01,0.87c0.01,0.29,0.02,0.55,0.05,0.79
			c0.03,0.24,0.08,0.43,0.15,0.57c0.07,0.14,0.17,0.22,0.3,0.22V56.31z"/>
		<path class="st3" d="M127.93,55.27c-0.31,0-0.56-0.06-0.74-0.18c-0.18-0.12-0.32-0.29-0.4-0.52c-0.08-0.22-0.12-0.49-0.12-0.79
			v-1.73c0-0.3,0.04-0.56,0.12-0.78c0.08-0.22,0.21-0.38,0.4-0.5c0.18-0.11,0.43-0.17,0.74-0.17s0.55,0.06,0.73,0.17
			c0.18,0.12,0.31,0.28,0.39,0.5c0.08,0.21,0.12,0.47,0.12,0.77v1.74c0,0.3-0.04,0.56-0.12,0.78c-0.08,0.22-0.21,0.39-0.39,0.52
			C128.48,55.21,128.24,55.27,127.93,55.27z M127.93,54.76c0.17,0,0.3-0.03,0.38-0.1c0.09-0.07,0.14-0.17,0.17-0.29
			c0.03-0.13,0.05-0.27,0.05-0.44v-2c0-0.17-0.02-0.32-0.05-0.44s-0.09-0.22-0.17-0.28c-0.09-0.07-0.21-0.1-0.38-0.1
			s-0.3,0.03-0.39,0.1s-0.15,0.16-0.18,0.28s-0.04,0.27-0.04,0.44v2c0,0.17,0.01,0.32,0.04,0.44c0.03,0.13,0.09,0.22,0.18,0.29
			C127.63,54.73,127.76,54.76,127.93,54.76z"/>
		<path class="st3" d="M129.86,56.29v-4.33h0.6v0.26c0.07-0.08,0.16-0.15,0.26-0.21c0.1-0.06,0.22-0.09,0.36-0.09
			c0.17,0,0.3,0.04,0.4,0.13s0.17,0.2,0.22,0.33c0.05,0.13,0.08,0.27,0.1,0.41c0.02,0.14,0.02,0.26,0.02,0.35v0.79
			c0,0.23-0.02,0.45-0.07,0.65c-0.04,0.21-0.13,0.37-0.25,0.5c-0.12,0.13-0.29,0.19-0.5,0.19c-0.12,0-0.22-0.03-0.31-0.09
			c-0.09-0.06-0.17-0.12-0.24-0.2v1.31H129.86z M130.9,54.79c0.11,0,0.18-0.04,0.23-0.12c0.05-0.08,0.07-0.18,0.08-0.31
			s0.02-0.28,0.02-0.43v-0.79c0-0.14-0.01-0.26-0.02-0.38s-0.05-0.21-0.1-0.27c-0.05-0.07-0.13-0.1-0.23-0.1
			c-0.08,0-0.15,0.02-0.23,0.05c-0.07,0.03-0.13,0.07-0.19,0.12v2.09c0.06,0.04,0.12,0.08,0.19,0.1
			C130.73,54.77,130.81,54.79,130.9,54.79z"/>
		<path class="st3" d="M133.4,55.26c-0.26,0-0.45-0.05-0.59-0.15s-0.24-0.25-0.29-0.44c-0.05-0.19-0.08-0.43-0.08-0.71v-0.74
			c0-0.29,0.03-0.53,0.08-0.72c0.06-0.19,0.16-0.34,0.3-0.43c0.14-0.1,0.34-0.15,0.58-0.15c0.27,0,0.48,0.06,0.61,0.17
			c0.13,0.11,0.22,0.28,0.26,0.49c0.04,0.21,0.06,0.47,0.06,0.76v0.27h-1.29v0.65c0,0.13,0.01,0.24,0.04,0.32
			c0.02,0.08,0.06,0.14,0.12,0.18c0.05,0.04,0.12,0.06,0.21,0.06c0.09,0,0.16-0.02,0.21-0.06c0.05-0.04,0.08-0.1,0.1-0.19
			c0.02-0.08,0.03-0.18,0.03-0.29v-0.2h0.59v0.12c0,0.33-0.07,0.58-0.21,0.77C133.97,55.17,133.73,55.26,133.4,55.26z M133.04,53.27
			h0.69v-0.29c0-0.14-0.01-0.25-0.02-0.34s-0.05-0.16-0.09-0.21c-0.05-0.05-0.12-0.07-0.22-0.07c-0.1,0-0.17,0.02-0.22,0.07
			c-0.05,0.05-0.09,0.12-0.1,0.23c-0.02,0.11-0.03,0.25-0.03,0.44V53.27z"/>
		<path class="st3" d="M134.98,55.22v-3.26h0.6v0.32c0.11-0.1,0.23-0.19,0.36-0.26c0.13-0.07,0.28-0.11,0.43-0.11
			c0.13,0,0.23,0.03,0.3,0.1c0.07,0.07,0.12,0.15,0.15,0.25c0.03,0.1,0.04,0.21,0.04,0.31v2.64h-0.6v-2.47
			c0-0.12-0.02-0.21-0.05-0.27c-0.03-0.06-0.1-0.1-0.21-0.1c-0.07,0-0.14,0.02-0.21,0.06c-0.07,0.04-0.14,0.09-0.21,0.14v2.63
			H134.98z"/>
		<path class="st3" d="M137.31,55.32v-0.46c0.14,0,0.25-0.01,0.34-0.03c0.09-0.02,0.15-0.05,0.2-0.1c0.05-0.05,0.08-0.12,0.1-0.21
			s0.03-0.21,0.03-0.35v-3.53h0.63v3.54c0,0.26-0.03,0.48-0.08,0.65s-0.16,0.29-0.3,0.37s-0.35,0.12-0.61,0.12H137.31z"/>
		<path class="st3" d="M140.51,55.27c-0.26,0-0.48-0.06-0.66-0.17c-0.17-0.11-0.31-0.27-0.4-0.47s-0.14-0.43-0.16-0.69l0.56-0.15
			c0.01,0.16,0.04,0.32,0.08,0.47c0.04,0.15,0.1,0.27,0.19,0.37c0.09,0.1,0.22,0.14,0.38,0.14c0.17,0,0.29-0.05,0.38-0.14
			c0.08-0.09,0.13-0.22,0.13-0.4c0-0.21-0.05-0.37-0.14-0.5c-0.09-0.13-0.21-0.25-0.36-0.38l-0.77-0.68
			c-0.15-0.13-0.26-0.28-0.33-0.43c-0.07-0.16-0.11-0.35-0.11-0.58c0-0.33,0.1-0.59,0.29-0.78s0.45-0.28,0.78-0.28
			c0.18,0,0.34,0.02,0.48,0.07c0.14,0.05,0.25,0.12,0.34,0.22s0.17,0.22,0.22,0.37c0.05,0.15,0.09,0.32,0.11,0.52l-0.54,0.15
			c-0.01-0.15-0.03-0.29-0.07-0.42c-0.03-0.13-0.09-0.23-0.18-0.3c-0.08-0.08-0.21-0.12-0.36-0.12s-0.28,0.04-0.37,0.13
			c-0.09,0.08-0.13,0.21-0.13,0.38c0,0.14,0.02,0.25,0.07,0.34c0.05,0.09,0.12,0.18,0.23,0.28l0.77,0.68
			c0.17,0.15,0.33,0.33,0.46,0.54c0.13,0.21,0.2,0.46,0.2,0.74c0,0.23-0.05,0.42-0.14,0.58c-0.09,0.16-0.22,0.29-0.39,0.38
			C140.92,55.22,140.73,55.27,140.51,55.27z"/>
		<path class="st3" d="M142.03,56.31V55.9c0.14,0,0.24-0.08,0.31-0.22c0.07-0.15,0.12-0.34,0.15-0.57c0.03-0.24,0.05-0.5,0.05-0.79
			c0.01-0.29,0.01-0.58,0.01-0.87c0-0.29,0-0.58-0.01-0.87c-0.01-0.29-0.02-0.55-0.05-0.78c-0.03-0.24-0.08-0.42-0.15-0.57
			c-0.07-0.14-0.17-0.22-0.31-0.22v-0.4c0.22,0,0.4,0.05,0.53,0.16c0.14,0.11,0.25,0.25,0.32,0.44c0.08,0.19,0.14,0.4,0.17,0.65
			c0.04,0.24,0.06,0.5,0.06,0.77c0.01,0.27,0.01,0.55,0.01,0.82s0,0.55-0.01,0.83c-0.01,0.27-0.03,0.53-0.06,0.78
			c-0.04,0.24-0.09,0.46-0.17,0.65s-0.19,0.34-0.32,0.44C142.42,56.25,142.24,56.31,142.03,56.31z"/>
	</g>
</g>
<g>
	<g>
		<path class="st3" d="M119.5,68.15v-6.48h0.62l1.84,4.3v-4.3h0.75v6.48h-0.58l-1.86-4.42v4.42H119.5z"/>
		<path class="st3" d="M125.09,68.22c-0.34,0-0.61-0.07-0.81-0.21s-0.34-0.34-0.42-0.59c-0.08-0.26-0.12-0.56-0.12-0.9v-1.34
			c0-0.35,0.04-0.65,0.12-0.9c0.08-0.26,0.22-0.45,0.42-0.59s0.47-0.21,0.81-0.21s0.61,0.07,0.8,0.21c0.19,0.14,0.33,0.34,0.42,0.59
			c0.08,0.26,0.12,0.56,0.12,0.9v1.34c0,0.35-0.04,0.65-0.12,0.9c-0.08,0.26-0.22,0.45-0.42,0.59
			C125.7,68.15,125.43,68.22,125.09,68.22z M125.09,67.59c0.17,0,0.28-0.05,0.35-0.14c0.07-0.1,0.11-0.22,0.12-0.38
			s0.02-0.32,0.02-0.49v-1.45c0-0.18-0.01-0.34-0.02-0.5s-0.05-0.28-0.12-0.38c-0.07-0.1-0.18-0.15-0.35-0.15
			c-0.17,0-0.28,0.05-0.35,0.15c-0.07,0.1-0.11,0.23-0.12,0.38s-0.02,0.32-0.02,0.5v1.45c0,0.17,0.01,0.33,0.02,0.49
			s0.05,0.28,0.12,0.38C124.8,67.54,124.92,67.59,125.09,67.59z"/>
		<path class="st3" d="M128.45,68.22c-0.39,0-0.68-0.14-0.87-0.43c-0.19-0.29-0.29-0.77-0.29-1.45v-0.9c0-0.35,0.03-0.68,0.09-0.98
			c0.06-0.3,0.17-0.54,0.33-0.72c0.16-0.18,0.4-0.27,0.72-0.27c0.15,0,0.3,0.03,0.42,0.1c0.13,0.07,0.24,0.15,0.34,0.26v-2.15h0.86
			v6.48h-0.86v-0.3c-0.1,0.11-0.21,0.19-0.33,0.26C128.74,68.19,128.6,68.22,128.45,68.22z M128.66,67.55
			c0.08,0,0.17-0.01,0.26-0.04c0.09-0.03,0.18-0.07,0.27-0.13v-3.03c-0.07-0.05-0.16-0.1-0.25-0.14s-0.19-0.06-0.3-0.06
			c-0.2,0-0.33,0.09-0.4,0.28c-0.07,0.19-0.1,0.42-0.1,0.68v1.3c0,0.21,0.01,0.41,0.04,0.58s0.07,0.31,0.15,0.41
			S128.51,67.55,128.66,67.55z"/>
		<path class="st3" d="M132.35,68.22c-0.36,0-0.64-0.07-0.84-0.21s-0.33-0.35-0.41-0.62c-0.08-0.27-0.12-0.61-0.12-1.01v-1.06
			c0-0.41,0.04-0.75,0.12-1.02c0.08-0.27,0.22-0.48,0.42-0.62c0.2-0.14,0.48-0.21,0.83-0.21c0.39,0,0.68,0.08,0.86,0.24
			c0.18,0.16,0.31,0.39,0.36,0.69s0.09,0.66,0.09,1.08v0.38h-1.82v0.93c0,0.19,0.02,0.34,0.05,0.46c0.03,0.12,0.09,0.2,0.17,0.26
			c0.08,0.06,0.18,0.08,0.3,0.08c0.13,0,0.23-0.03,0.29-0.09c0.07-0.06,0.11-0.15,0.14-0.26s0.04-0.25,0.04-0.4v-0.28h0.83v0.18
			c0,0.46-0.1,0.83-0.3,1.1C133.16,68.09,132.83,68.22,132.35,68.22z M131.84,65.4h0.98v-0.42c0-0.19-0.01-0.35-0.03-0.48
			c-0.02-0.13-0.07-0.23-0.13-0.3c-0.07-0.07-0.17-0.1-0.32-0.1c-0.14,0-0.24,0.03-0.32,0.1c-0.07,0.06-0.12,0.17-0.15,0.32
			c-0.03,0.15-0.04,0.36-0.04,0.63V65.4z"/>
		<path class="st3" d="M138.21,68.23c-0.41,0-0.73-0.09-0.97-0.26c-0.24-0.17-0.42-0.43-0.53-0.76s-0.16-0.73-0.16-1.19v-2.17
			c0-0.47,0.05-0.88,0.15-1.21c0.1-0.33,0.27-0.59,0.53-0.76c0.25-0.18,0.61-0.26,1.06-0.26c0.41,0,0.73,0.07,0.98,0.2
			c0.25,0.14,0.43,0.34,0.54,0.62c0.11,0.28,0.17,0.63,0.17,1.06v0.24h-0.85v-0.2c0-0.28-0.02-0.51-0.06-0.69
			c-0.04-0.18-0.11-0.31-0.23-0.4c-0.11-0.09-0.29-0.13-0.54-0.13c-0.27,0-0.46,0.06-0.58,0.18c-0.12,0.12-0.19,0.29-0.22,0.5
			c-0.03,0.21-0.04,0.45-0.04,0.72v2.4c0,0.31,0.02,0.57,0.07,0.78s0.13,0.36,0.26,0.46c0.13,0.1,0.31,0.15,0.54,0.15
			c0.23,0,0.42-0.06,0.54-0.17c0.13-0.11,0.22-0.28,0.26-0.5c0.05-0.22,0.07-0.49,0.07-0.82v-0.45h-0.82v-0.64h1.64v3.21h-0.57
			l-0.09-0.74c-0.09,0.24-0.22,0.44-0.4,0.59C138.78,68.16,138.53,68.23,138.21,68.23z"/>
		<path class="st3" d="M141.11,68.15v-6.48h0.86v6.48H141.11z"/>
		<path class="st3" d="M144.29,68.22c-0.34,0-0.61-0.07-0.81-0.21s-0.34-0.34-0.42-0.59c-0.08-0.26-0.12-0.56-0.12-0.9v-1.34
			c0-0.35,0.04-0.65,0.12-0.9c0.08-0.26,0.22-0.45,0.42-0.59s0.47-0.21,0.81-0.21s0.61,0.07,0.8,0.21c0.19,0.14,0.33,0.34,0.42,0.59
			c0.08,0.26,0.12,0.56,0.12,0.9v1.34c0,0.35-0.04,0.65-0.12,0.9c-0.08,0.26-0.22,0.45-0.42,0.59
			C144.9,68.15,144.64,68.22,144.29,68.22z M144.29,67.59c0.17,0,0.28-0.05,0.35-0.14c0.07-0.1,0.11-0.22,0.12-0.38
			s0.02-0.32,0.02-0.49v-1.45c0-0.18-0.01-0.34-0.02-0.5s-0.05-0.28-0.12-0.38c-0.07-0.1-0.18-0.15-0.35-0.15
			c-0.17,0-0.28,0.05-0.35,0.15c-0.07,0.1-0.11,0.23-0.12,0.38s-0.02,0.32-0.02,0.5v1.45c0,0.17,0.01,0.33,0.02,0.49
			s0.05,0.28,0.12,0.38C144.01,67.54,144.13,67.59,144.29,67.59z"/>
		<path class="st3" d="M148.24,68.22c-0.17,0-0.31-0.04-0.44-0.12c-0.13-0.08-0.24-0.17-0.34-0.28v0.34h-0.86v-6.48h0.86v2.22
			c0.1-0.12,0.22-0.22,0.36-0.3c0.14-0.08,0.31-0.13,0.51-0.13c0.24,0,0.43,0.06,0.57,0.19c0.14,0.13,0.25,0.28,0.32,0.47
			c0.07,0.19,0.11,0.38,0.14,0.58c0.02,0.19,0.03,0.36,0.03,0.5v1.12c0,0.33-0.03,0.63-0.1,0.92c-0.06,0.29-0.18,0.53-0.34,0.7
			C148.78,68.13,148.54,68.22,148.24,68.22z M148.06,67.55c0.15,0,0.26-0.05,0.32-0.16s0.1-0.26,0.12-0.44
			c0.02-0.19,0.02-0.39,0.02-0.62V65.2c0-0.19-0.01-0.37-0.03-0.53c-0.02-0.16-0.07-0.29-0.14-0.39c-0.07-0.1-0.18-0.14-0.33-0.14
			c-0.11,0-0.22,0.02-0.32,0.07c-0.1,0.05-0.19,0.1-0.26,0.16v2.97c0.07,0.06,0.16,0.11,0.27,0.15S147.94,67.55,148.06,67.55z"/>
		<path class="st3" d="M151.15,68.22c-0.18,0-0.34-0.05-0.48-0.16c-0.14-0.1-0.25-0.24-0.33-0.4c-0.08-0.16-0.12-0.33-0.12-0.52
			c0-0.29,0.05-0.53,0.14-0.73s0.23-0.36,0.4-0.5c0.17-0.14,0.36-0.25,0.58-0.36c0.22-0.1,0.45-0.2,0.7-0.3v-0.33
			c0-0.19-0.01-0.34-0.03-0.46c-0.02-0.12-0.07-0.21-0.13-0.28c-0.07-0.06-0.17-0.09-0.3-0.09c-0.12,0-0.21,0.03-0.28,0.08
			c-0.07,0.05-0.12,0.13-0.16,0.23c-0.03,0.1-0.05,0.21-0.05,0.35v0.23l-0.85-0.03c0.01-0.51,0.13-0.89,0.35-1.13
			c0.22-0.24,0.57-0.36,1.04-0.36c0.46,0,0.78,0.13,0.98,0.38c0.19,0.25,0.29,0.61,0.29,1.09v2.11c0,0.14,0,0.28,0.01,0.42
			c0.01,0.13,0.02,0.26,0.03,0.37c0.01,0.11,0.03,0.22,0.04,0.32h-0.78c-0.02-0.09-0.04-0.19-0.06-0.32
			c-0.02-0.13-0.04-0.25-0.05-0.36c-0.05,0.18-0.16,0.35-0.31,0.51S151.42,68.22,151.15,68.22z M151.49,67.48
			c0.08,0,0.17-0.02,0.24-0.07c0.07-0.05,0.14-0.1,0.2-0.16c0.06-0.06,0.1-0.11,0.12-0.15v-1.31c-0.13,0.07-0.26,0.15-0.38,0.22
			c-0.12,0.07-0.22,0.15-0.31,0.24c-0.09,0.08-0.16,0.18-0.21,0.28s-0.08,0.22-0.08,0.36c0,0.19,0.03,0.33,0.1,0.44
			C151.25,67.43,151.35,67.48,151.49,67.48z"/>
		<path class="st3" d="M153.97,68.15v-6.48h0.86v6.48H153.97z"/>
	</g>
</g>
<g>
	<g>
		<path class="st3" d="M67.47,52.02V51.3c0.22,0,0.4-0.02,0.54-0.04c0.14-0.03,0.24-0.08,0.32-0.16s0.13-0.19,0.16-0.34
			c0.03-0.15,0.04-0.33,0.04-0.56v-5.62h1.01v5.64c0,0.42-0.04,0.76-0.13,1.03c-0.09,0.27-0.25,0.46-0.48,0.59s-0.55,0.19-0.97,0.19
			H67.47z"/>
		<path class="st3" d="M71.72,51.93c-0.2,0-0.38-0.06-0.54-0.18c-0.16-0.12-0.28-0.27-0.37-0.45c-0.09-0.18-0.14-0.38-0.14-0.58
			c0-0.32,0.05-0.6,0.16-0.82c0.11-0.22,0.26-0.41,0.45-0.56s0.41-0.29,0.66-0.4s0.51-0.22,0.79-0.33v-0.37
			c0-0.21-0.01-0.38-0.04-0.52c-0.02-0.14-0.07-0.24-0.15-0.31c-0.08-0.07-0.19-0.1-0.34-0.1c-0.13,0-0.24,0.03-0.32,0.09
			s-0.14,0.15-0.18,0.26c-0.04,0.11-0.05,0.24-0.05,0.39v0.26l-0.95-0.04c0.01-0.58,0.14-1,0.4-1.27c0.25-0.27,0.64-0.41,1.17-0.41
			c0.52,0,0.88,0.14,1.1,0.42c0.22,0.28,0.32,0.69,0.32,1.22v2.38c0,0.16,0,0.32,0.01,0.47c0.01,0.15,0.02,0.29,0.04,0.42
			s0.03,0.25,0.04,0.36H72.9c-0.02-0.1-0.04-0.22-0.07-0.36c-0.03-0.15-0.05-0.28-0.06-0.4c-0.06,0.2-0.18,0.39-0.35,0.57
			S72.02,51.93,71.72,51.93z M72.1,51.1c0.1,0,0.19-0.03,0.27-0.08s0.16-0.12,0.23-0.18s0.11-0.12,0.14-0.17v-1.48
			c-0.15,0.08-0.29,0.17-0.42,0.25s-0.25,0.17-0.35,0.27c-0.1,0.09-0.18,0.2-0.23,0.32c-0.06,0.12-0.09,0.25-0.09,0.4
			c0,0.21,0.04,0.38,0.12,0.5S71.95,51.1,72.1,51.1z"/>
		<path class="st3" d="M75.47,51.85l-1.03-5.2h0.97l0.64,4.19l0.65-4.19h0.94l-0.99,5.2H75.47z"/>
		<path class="st3" d="M79.38,51.93c-0.2,0-0.38-0.06-0.54-0.18c-0.16-0.12-0.28-0.27-0.37-0.45c-0.09-0.18-0.14-0.38-0.14-0.58
			c0-0.32,0.05-0.6,0.16-0.82c0.11-0.22,0.26-0.41,0.45-0.56s0.41-0.29,0.66-0.4s0.51-0.22,0.79-0.33v-0.37
			c0-0.21-0.01-0.38-0.04-0.52c-0.02-0.14-0.07-0.24-0.15-0.31c-0.08-0.07-0.19-0.1-0.34-0.1c-0.13,0-0.24,0.03-0.32,0.09
			s-0.14,0.15-0.18,0.26c-0.04,0.11-0.05,0.24-0.05,0.39v0.26l-0.95-0.04c0.01-0.58,0.14-1,0.4-1.27c0.25-0.27,0.64-0.41,1.17-0.41
			c0.52,0,0.88,0.14,1.1,0.42c0.22,0.28,0.32,0.69,0.32,1.22v2.38c0,0.16,0,0.32,0.01,0.47c0.01,0.15,0.02,0.29,0.04,0.42
			s0.03,0.25,0.04,0.36h-0.88c-0.02-0.1-0.04-0.22-0.07-0.36c-0.03-0.15-0.05-0.28-0.06-0.4c-0.06,0.2-0.18,0.39-0.35,0.57
			S79.68,51.93,79.38,51.93z M79.76,51.1c0.1,0,0.19-0.03,0.27-0.08s0.16-0.12,0.23-0.18s0.11-0.12,0.14-0.17v-1.48
			c-0.15,0.08-0.29,0.17-0.42,0.25s-0.25,0.17-0.35,0.27c-0.1,0.09-0.18,0.2-0.23,0.32c-0.06,0.12-0.09,0.25-0.09,0.4
			c0,0.21,0.04,0.38,0.12,0.5S79.61,51.1,79.76,51.1z"/>
		<path class="st3" d="M84.26,51.94c-0.42,0-0.77-0.09-1.05-0.27c-0.28-0.18-0.49-0.43-0.63-0.75c-0.14-0.32-0.23-0.69-0.25-1.11
			l0.9-0.24c0.02,0.26,0.06,0.51,0.12,0.75s0.17,0.44,0.31,0.59c0.14,0.15,0.34,0.23,0.6,0.23c0.26,0,0.46-0.07,0.6-0.22
			c0.14-0.15,0.2-0.36,0.2-0.63c0-0.33-0.08-0.59-0.23-0.8s-0.34-0.4-0.57-0.61l-1.22-1.08c-0.24-0.21-0.42-0.44-0.53-0.69
			c-0.11-0.25-0.17-0.56-0.17-0.92c0-0.53,0.15-0.95,0.46-1.24c0.31-0.29,0.72-0.44,1.25-0.44c0.29,0,0.54,0.04,0.76,0.11
			c0.22,0.08,0.4,0.19,0.55,0.35c0.15,0.16,0.26,0.35,0.35,0.59c0.09,0.24,0.15,0.51,0.18,0.83l-0.86,0.23
			c-0.02-0.24-0.05-0.46-0.11-0.66c-0.05-0.2-0.15-0.36-0.28-0.49c-0.14-0.12-0.33-0.18-0.58-0.18s-0.45,0.07-0.59,0.2
			c-0.14,0.13-0.21,0.33-0.21,0.6c0,0.22,0.04,0.4,0.11,0.55c0.07,0.14,0.2,0.29,0.36,0.44l1.23,1.08c0.28,0.24,0.52,0.53,0.73,0.86
			S86,49.74,86,50.2c0,0.36-0.08,0.67-0.23,0.93c-0.15,0.26-0.36,0.46-0.62,0.6C84.9,51.87,84.6,51.94,84.26,51.94z"/>
		<path class="st3" d="M88.31,51.93c-0.43,0-0.75-0.09-0.97-0.26s-0.37-0.41-0.44-0.72c-0.08-0.31-0.11-0.67-0.11-1.09v-1.2
			c0-0.44,0.04-0.81,0.12-1.12s0.23-0.55,0.45-0.71c0.22-0.17,0.54-0.25,0.96-0.25c0.38,0,0.67,0.06,0.88,0.18s0.35,0.31,0.43,0.55
			c0.08,0.24,0.12,0.54,0.12,0.9v0.31h-0.87v-0.31c0-0.23-0.02-0.41-0.04-0.54c-0.03-0.13-0.08-0.23-0.16-0.29
			c-0.08-0.06-0.19-0.09-0.33-0.09c-0.16,0-0.28,0.04-0.36,0.11s-0.14,0.19-0.17,0.36c-0.03,0.17-0.04,0.4-0.04,0.7v1.64
			c0,0.44,0.04,0.74,0.13,0.89c0.08,0.15,0.23,0.23,0.45,0.23c0.16,0,0.28-0.04,0.36-0.11c0.07-0.07,0.12-0.18,0.14-0.32
			c0.02-0.14,0.03-0.29,0.03-0.47v-0.42h0.87v0.36c0,0.35-0.04,0.65-0.12,0.9s-0.23,0.44-0.43,0.58S88.69,51.93,88.31,51.93z"/>
		<path class="st3" d="M90.8,51.85v-5.2h0.96v0.74c0.19-0.32,0.38-0.53,0.58-0.64c0.19-0.11,0.38-0.16,0.58-0.16
			c0.02,0,0.05,0,0.07,0s0.05,0,0.09,0.01v1.06c-0.07-0.03-0.15-0.05-0.25-0.08c-0.09-0.02-0.19-0.03-0.28-0.03
			c-0.15,0-0.29,0.03-0.41,0.1c-0.12,0.07-0.24,0.2-0.36,0.4v3.8H90.8z"/>
		<path class="st3" d="M93.9,45.88v-1.01h0.96v1.01H93.9z M93.9,51.85v-5.2h0.96v5.2H93.9z"/>
		<path class="st3" d="M96.08,53.56v-6.91h0.96v0.41c0.11-0.13,0.25-0.25,0.41-0.34c0.16-0.1,0.35-0.14,0.58-0.14
			c0.27,0,0.48,0.07,0.64,0.21c0.16,0.14,0.28,0.32,0.36,0.53s0.13,0.43,0.15,0.65c0.02,0.22,0.04,0.41,0.04,0.56v1.26
			c0,0.37-0.04,0.71-0.11,1.04c-0.07,0.33-0.2,0.59-0.39,0.79s-0.45,0.3-0.8,0.3c-0.19,0-0.35-0.05-0.5-0.14s-0.27-0.2-0.39-0.32
			v2.1H96.08z M97.74,51.17c0.17,0,0.29-0.06,0.36-0.18c0.07-0.12,0.12-0.29,0.14-0.5c0.02-0.21,0.03-0.44,0.03-0.69v-1.26
			c0-0.22-0.01-0.42-0.04-0.6c-0.02-0.18-0.08-0.33-0.15-0.44c-0.08-0.11-0.2-0.16-0.37-0.16c-0.13,0-0.25,0.03-0.36,0.08
			c-0.11,0.05-0.21,0.12-0.3,0.19v3.33c0.09,0.07,0.19,0.12,0.31,0.17C97.46,51.15,97.59,51.17,97.74,51.17z"/>
		<path class="st3" d="M101.66,51.93c-0.27,0-0.49-0.05-0.65-0.15c-0.17-0.1-0.29-0.25-0.36-0.43c-0.08-0.19-0.11-0.41-0.11-0.66
			v-3.39h-0.55v-0.64h0.55v-1.52h0.96v1.52h0.84v0.64h-0.84v3.33c0,0.2,0.03,0.35,0.1,0.44c0.07,0.09,0.19,0.13,0.38,0.13
			c0.05,0,0.1,0,0.17-0.01s0.12-0.01,0.18-0.02v0.71c-0.12,0.02-0.23,0.03-0.33,0.04S101.78,51.93,101.66,51.93z"/>
		<path class="st3" d="M65.09,61.02c-0.19,0-0.35-0.05-0.47-0.15c-0.12-0.09-0.22-0.23-0.29-0.39c-0.07-0.17-0.12-0.36-0.15-0.57
			c-0.03-0.21-0.05-0.44-0.06-0.69s-0.01-0.49-0.01-0.73c0-0.25,0-0.49,0.01-0.73c0.01-0.24,0.03-0.47,0.06-0.69
			s0.08-0.41,0.15-0.57s0.17-0.3,0.29-0.4s0.28-0.14,0.47-0.14v0.36c-0.12,0-0.21,0.07-0.27,0.2c-0.06,0.13-0.11,0.3-0.13,0.51
			c-0.03,0.21-0.04,0.44-0.05,0.7c-0.01,0.25-0.01,0.51-0.01,0.77c0,0.26,0,0.52,0.01,0.77c0,0.25,0.02,0.49,0.05,0.7
			c0.03,0.21,0.07,0.38,0.13,0.5c0.06,0.13,0.15,0.19,0.27,0.2V61.02z"/>
		<path class="st3" d="M65.66,60.05V56h1.57v0.42h-1v1.34h0.81v0.4h-0.81v1.48h1.02v0.41H65.66z"/>
		<path class="st3" d="M68.81,60.09c-0.29,0-0.51-0.06-0.67-0.18c-0.16-0.12-0.27-0.28-0.33-0.49s-0.09-0.43-0.09-0.68v-1.43
			c0-0.27,0.03-0.51,0.09-0.71c0.06-0.2,0.17-0.36,0.33-0.47c0.16-0.11,0.38-0.17,0.67-0.17c0.25,0,0.45,0.05,0.6,0.14
			c0.15,0.09,0.25,0.23,0.32,0.4c0.06,0.17,0.1,0.38,0.1,0.62v0.32h-0.54v-0.29c0-0.15-0.01-0.28-0.02-0.4
			c-0.02-0.12-0.06-0.2-0.12-0.27c-0.07-0.06-0.18-0.09-0.33-0.09c-0.16,0-0.28,0.03-0.35,0.1c-0.07,0.07-0.12,0.17-0.14,0.29
			c-0.02,0.12-0.03,0.27-0.03,0.44v1.61c0,0.2,0.02,0.36,0.05,0.48s0.09,0.2,0.17,0.25c0.08,0.05,0.18,0.07,0.31,0.07
			c0.15,0,0.26-0.03,0.33-0.1c0.07-0.07,0.11-0.16,0.12-0.28s0.02-0.26,0.02-0.42v-0.3h0.54v0.3c0,0.25-0.03,0.46-0.09,0.65
			c-0.06,0.19-0.16,0.33-0.31,0.44C69.28,60.04,69.07,60.09,68.81,60.09z"/>
		<path class="st3" d="M70.46,60.05L70.53,56h0.56l0.71,3.29L72.52,56h0.55l0.08,4.05h-0.46l-0.04-2.94l-0.69,2.94h-0.32l-0.68-2.94
			l-0.04,2.94H70.46z"/>
		<path class="st3" d="M73.65,60.05L74.51,56h0.54l0.87,4.05h-0.54l-0.19-1.02h-0.83l-0.19,1.02H73.65z M74.45,58.62h0.67
			l-0.34-1.83L74.45,58.62z"/>
		<path class="st3" d="M77.56,60.05v-0.38l1.03-1.61c0.08-0.12,0.15-0.23,0.21-0.33c0.07-0.1,0.12-0.21,0.16-0.33
			s0.06-0.25,0.06-0.4c0-0.19-0.03-0.33-0.09-0.44c-0.06-0.11-0.17-0.16-0.31-0.16c-0.13,0-0.23,0.03-0.29,0.1
			c-0.07,0.07-0.12,0.16-0.15,0.28c-0.03,0.11-0.04,0.23-0.04,0.36v0.14h-0.54v-0.14c0-0.24,0.03-0.45,0.1-0.63s0.17-0.31,0.31-0.41
			s0.34-0.14,0.58-0.14c0.33,0,0.57,0.09,0.73,0.28c0.16,0.19,0.24,0.44,0.24,0.77c0,0.17-0.02,0.33-0.06,0.46s-0.1,0.25-0.16,0.37
			c-0.07,0.11-0.14,0.23-0.22,0.35l-0.93,1.42h1.28v0.45H77.56z"/>
		<path class="st3" d="M81.13,60.09c-0.23,0-0.42-0.06-0.57-0.18c-0.15-0.12-0.25-0.28-0.32-0.48c-0.07-0.2-0.1-0.43-0.1-0.67V57.4
			c0-0.26,0.03-0.5,0.09-0.72s0.16-0.39,0.31-0.52s0.34-0.2,0.6-0.2c0.21,0,0.39,0.04,0.53,0.12c0.15,0.08,0.26,0.19,0.33,0.33
			c0.08,0.15,0.12,0.33,0.12,0.54c0,0.01,0,0.02,0,0.03c0,0.01,0,0.02,0,0.03h-0.54c0-0.2-0.03-0.35-0.1-0.45s-0.18-0.15-0.36-0.15
			c-0.1,0-0.18,0.03-0.25,0.09c-0.07,0.06-0.12,0.16-0.16,0.28c-0.04,0.13-0.05,0.29-0.05,0.49v0.62c0.05-0.08,0.13-0.15,0.23-0.2
			c0.1-0.05,0.22-0.08,0.36-0.08c0.22,0,0.4,0.05,0.52,0.15s0.22,0.23,0.27,0.41s0.08,0.38,0.08,0.62c0,0.24-0.03,0.47-0.1,0.67
			c-0.07,0.2-0.17,0.36-0.32,0.48C81.57,60.03,81.38,60.09,81.13,60.09z M81.13,59.65c0.12,0,0.21-0.03,0.28-0.1
			c0.07-0.07,0.11-0.16,0.14-0.27s0.04-0.24,0.04-0.37c0-0.16-0.01-0.31-0.02-0.45s-0.05-0.25-0.12-0.33
			c-0.06-0.08-0.17-0.12-0.32-0.12c-0.07,0-0.14,0.01-0.2,0.04s-0.11,0.06-0.15,0.1c-0.04,0.04-0.08,0.09-0.1,0.13v0.6
			c0,0.14,0.01,0.26,0.04,0.38c0.03,0.12,0.08,0.21,0.14,0.28C80.92,59.61,81.02,59.65,81.13,59.65z"/>
		<path class="st3" d="M82.67,60.05v-0.38l1.03-1.61c0.08-0.12,0.15-0.23,0.21-0.33c0.07-0.1,0.12-0.21,0.16-0.33
			s0.06-0.25,0.06-0.4c0-0.19-0.03-0.33-0.09-0.44c-0.06-0.11-0.17-0.16-0.31-0.16c-0.13,0-0.23,0.03-0.29,0.1
			c-0.07,0.07-0.12,0.16-0.15,0.28c-0.03,0.11-0.04,0.23-0.04,0.36v0.14h-0.54v-0.14c0-0.24,0.03-0.45,0.1-0.63s0.17-0.31,0.31-0.41
			s0.34-0.14,0.58-0.14c0.33,0,0.57,0.09,0.73,0.28c0.16,0.19,0.24,0.44,0.24,0.77c0,0.17-0.02,0.33-0.06,0.46s-0.1,0.25-0.16,0.37
			c-0.07,0.11-0.14,0.23-0.22,0.35L83.3,59.6h1.28v0.45H82.67z"/>
		<path class="st3" d="M85.24,60.7l-0.08-0.23c0.09-0.03,0.16-0.08,0.21-0.16s0.08-0.16,0.08-0.27h-0.29v-0.58h0.55v0.57
			c0,0.18-0.04,0.32-0.11,0.42C85.52,60.56,85.4,60.65,85.24,60.7z"/>
		<path class="st3" d="M88.61,60.05v-1.08h-1.17V58.4L88.49,56h0.63v2.49h0.46v0.47h-0.46v1.08H88.61z M87.95,58.49h0.66v-1.84
			L87.95,58.49z"/>
		<path class="st3" d="M91.04,60.09c-0.23,0-0.42-0.05-0.57-0.16c-0.15-0.1-0.26-0.25-0.33-0.42s-0.11-0.38-0.11-0.62v-1.74
			c0-0.24,0.04-0.44,0.1-0.62c0.07-0.18,0.18-0.32,0.33-0.42c0.15-0.1,0.34-0.15,0.57-0.15s0.42,0.05,0.57,0.15
			c0.15,0.1,0.25,0.24,0.32,0.42c0.07,0.18,0.1,0.39,0.1,0.62v1.74c0,0.23-0.04,0.44-0.11,0.62c-0.07,0.18-0.18,0.32-0.33,0.42
			C91.46,60.04,91.27,60.09,91.04,60.09z M91.04,59.65c0.13,0,0.22-0.04,0.29-0.11s0.11-0.17,0.13-0.28
			c0.03-0.12,0.04-0.23,0.04-0.36v-1.76c0-0.13-0.01-0.25-0.03-0.37c-0.02-0.12-0.07-0.21-0.13-0.28s-0.16-0.11-0.29-0.11
			s-0.23,0.04-0.29,0.11c-0.07,0.07-0.11,0.16-0.13,0.28c-0.02,0.12-0.04,0.24-0.04,0.37v1.76c0,0.12,0.01,0.24,0.04,0.36
			c0.02,0.11,0.07,0.21,0.14,0.28S90.92,59.65,91.04,59.65z"/>
		<path class="st3" d="M92.64,60.05v-0.38l1.03-1.61c0.08-0.12,0.15-0.23,0.21-0.33c0.07-0.1,0.12-0.21,0.16-0.33
			s0.06-0.25,0.06-0.4c0-0.19-0.03-0.33-0.09-0.44c-0.06-0.11-0.17-0.16-0.31-0.16c-0.13,0-0.23,0.03-0.29,0.1
			c-0.07,0.07-0.12,0.16-0.15,0.28c-0.03,0.11-0.04,0.23-0.04,0.36v0.14h-0.54v-0.14c0-0.24,0.03-0.45,0.1-0.63s0.17-0.31,0.31-0.41
			s0.34-0.14,0.58-0.14c0.33,0,0.57,0.09,0.73,0.28c0.16,0.19,0.24,0.44,0.24,0.77c0,0.17-0.02,0.33-0.06,0.46s-0.1,0.25-0.16,0.37
			c-0.07,0.11-0.14,0.23-0.22,0.35l-0.93,1.42h1.28v0.45H92.64z"/>
		<path class="st3" d="M95.21,60.7l-0.08-0.23c0.09-0.03,0.16-0.08,0.21-0.16s0.08-0.16,0.08-0.27h-0.29v-0.58h0.55v0.57
			c0,0.18-0.04,0.32-0.11,0.42C95.49,60.56,95.37,60.65,95.21,60.7z"/>
		<path class="st3" d="M98.58,60.05v-1.08H97.4V58.4L98.46,56h0.63v2.49h0.46v0.47h-0.46v1.08H98.58z M97.92,58.49h0.66v-1.84
			L97.92,58.49z"/>
		<path class="st3" d="M101.01,60.09c-0.23,0-0.42-0.05-0.57-0.16c-0.15-0.1-0.26-0.25-0.33-0.42s-0.11-0.38-0.11-0.62v-1.74
			c0-0.24,0.04-0.44,0.1-0.62c0.07-0.18,0.18-0.32,0.33-0.42c0.15-0.1,0.34-0.15,0.57-0.15s0.42,0.05,0.57,0.15
			c0.15,0.1,0.25,0.24,0.32,0.42c0.07,0.18,0.1,0.39,0.1,0.62v1.74c0,0.23-0.04,0.44-0.11,0.62c-0.07,0.18-0.18,0.32-0.33,0.42
			C101.43,60.04,101.24,60.09,101.01,60.09z M101.01,59.65c0.13,0,0.22-0.04,0.29-0.11s0.11-0.17,0.13-0.28
			c0.03-0.12,0.04-0.23,0.04-0.36v-1.76c0-0.13-0.01-0.25-0.03-0.37c-0.02-0.12-0.07-0.21-0.13-0.28s-0.16-0.11-0.29-0.11
			s-0.23,0.04-0.29,0.11c-0.07,0.07-0.11,0.16-0.13,0.28c-0.02,0.12-0.04,0.24-0.04,0.37v1.76c0,0.12,0.01,0.24,0.04,0.36
			c0.02,0.11,0.07,0.21,0.14,0.28S100.89,59.65,101.01,59.65z"/>
		<path class="st3" d="M103.78,60.05v-1.08h-1.17V58.4l1.05-2.41h0.63v2.49h0.46v0.47h-0.46v1.08H103.78z M103.12,58.49h0.66v-1.84
			L103.12,58.49z"/>
		<path class="st3" d="M105.06,61.02v-0.36c0.12,0,0.21-0.07,0.27-0.2c0.06-0.13,0.11-0.3,0.14-0.51c0.03-0.21,0.04-0.44,0.05-0.7
			s0.01-0.51,0.01-0.77c0-0.26,0-0.52-0.01-0.77c0-0.25-0.02-0.49-0.05-0.69c-0.03-0.21-0.07-0.38-0.14-0.5s-0.15-0.19-0.27-0.2
			v-0.35c0.19,0,0.35,0.05,0.47,0.14c0.12,0.09,0.22,0.23,0.29,0.39c0.07,0.17,0.12,0.36,0.15,0.57s0.05,0.44,0.06,0.68
			c0.01,0.24,0.01,0.48,0.01,0.73c0,0.25,0,0.49-0.01,0.73c-0.01,0.24-0.03,0.47-0.06,0.69c-0.03,0.22-0.08,0.41-0.15,0.57
			c-0.07,0.17-0.17,0.3-0.29,0.39C105.41,60.96,105.26,61.01,105.06,61.02z"/>
	</g>
</g>
</svg>
